HIERARCHY
ROOT Hips
{
	OFFSET 0.00000 0.00000 0.00000
	CHANNELS 6 Xposition Yposition Zposition Zrotation Yrotation Xrotation 
	JOINT LHipJoint
	{
		OFFSET 0 0 0
		CHANNELS 3 Zrotation Yrotation Xrotation
		JOINT LeftHip
		{
			OFFSET 1.80322 -1.53100 0.99595
			CHANNELS 3 Zrotation Yrotation Xrotation
			JOINT LeftKnee
			{
				OFFSET 2.25177 -6.18669 0.00000
				CHANNELS 3 Zrotation Yrotation Xrotation
				JOINT LeftAnkle
				{
					OFFSET 2.26601 -6.22582 0.00000
					CHANNELS 3 Zrotation Yrotation Xrotation
					JOINT LeftToe
					{
						OFFSET 0.23701 -0.65119 2.15848
						CHANNELS 3 Zrotation Yrotation Xrotation
						End Site
						{
							OFFSET 0.00000 -0.00000 1.12949
						}
					}
				}
			}
		}
	}
	JOINT RHipJoint
	{
		OFFSET 0 0 0
		CHANNELS 3 Zrotation Yrotation Xrotation
		JOINT RightHip
		{
			OFFSET -1.93977 -1.53100 0.99595
			CHANNELS 3 Zrotation Yrotation Xrotation
			JOINT RightKnee
			{
				OFFSET -2.28036 -6.26523 0.00000
				CHANNELS 3 Zrotation Yrotation Xrotation
				JOINT RightAnkle
				{
					OFFSET -2.25490 -6.19528 0.00000
					CHANNELS 3 Zrotation Yrotation Xrotation
					JOINT RightToe
					{
						OFFSET -0.28375 -0.77960 2.23137
						CHANNELS 3 Zrotation Yrotation Xrotation
						End Site
						{
							OFFSET -0.00000 -0.00000 1.17899
						}
					}
				}
			}
		}
	}
	JOINT lowerback
	{
		OFFSET 0 0 0
		CHANNELS 3 Zrotation Yrotation Xrotation
		JOINT Chest
		{
			OFFSET -0.00088 2.12090 -0.02806
			CHANNELS 3 Zrotation Yrotation Xrotation
			JOINT Chest2
			{
				OFFSET -0.00286 2.09666 0.12974
				CHANNELS 3 Zrotation Yrotation Xrotation
				JOINT lowerneck
				{
					OFFSET 0 0 0
					CHANNELS 3 Zrotation Yrotation Xrotation
					JOINT Neck
					{
						OFFSET 0.07328 1.83526 0.07290
						CHANNELS 3 Zrotation Yrotation Xrotation
						JOINT Head
						{
							OFFSET -0.06683 1.74974 -0.49542
							CHANNELS 3 Zrotation Yrotation Xrotation
							End Site
							{
								OFFSET -0.03398 1.85163 -0.17573
							}
						}
					}
				}
				JOINT LeftCollar
				{
					OFFSET 0 0 0
					CHANNELS 3 Zrotation Yrotation Xrotation
					JOINT LeftShoulder
					{
						OFFSET 3.02113 1.18018 0.40602
CHANNELS 3 Zrotation Xrotation Yrotation
						JOINT LeftElbow
						{
OFFSET 0 -4.585380 -0.000000
CHANNELS 3 Zrotation Xrotation Yrotation
							JOINT LeftWrist
							{
OFFSET 0 -2.689350 -0.000000
CHANNELS 3 Zrotation Xrotation Yrotation
								JOINT lhand
								{
									OFFSET 0 0 0
CHANNELS 3 Zrotation Xrotation Yrotation
									JOINT LFingers
									{
OFFSET 0 -0.585060 -0.000000
CHANNELS 3 Zrotation Xrotation Yrotation
										End Site
										{
OFFSET 0 -0.471690 -0.000000
										}
									}
								}
								JOINT LThumb
								{
OFFSET 0 0.000000 0.000000
CHANNELS 3 Zrotation Xrotation Yrotation
									End Site
									{
OFFSET 0 -0.478890 0.478890
									}
								}
							}
						}
					}
				}
				JOINT RightCollar
				{
					OFFSET 0 0 0
					CHANNELS 3 Zrotation Yrotation Xrotation
					JOINT RightShoulder
					{
						OFFSET -2.95074 1.18843 0.31430
CHANNELS 3 Zrotation Xrotation Yrotation
						JOINT RightElbow
						{
OFFSET 0 -4.474500 -0.000000
CHANNELS 3 Zrotation Xrotation Yrotation
							JOINT RightWrist
							{
OFFSET 0 -2.938960 -0.000000
CHANNELS 3 Zrotation Xrotation Yrotation
								JOINT rhand
								{
									OFFSET 0 0 0
CHANNELS 3 Zrotation Xrotation Yrotation
									JOINT RFingers
									{
OFFSET 0 -0.405090 -0.000000
CHANNELS 3 Zrotation Xrotation Yrotation
										End Site
										{
OFFSET 0 -0.326600 -0.000000
										}
									}
								}
								JOINT RThumb
								{
OFFSET 0 0.000000 0.000000
CHANNELS 3 Zrotation Xrotation Yrotation
									End Site
									{
OFFSET 0 -0.331580 0.331580
									}
								}
							}
						}
					}
				}
			}
		}
	}
}
MOTION
Frames: 12
Frame Time: 0.008333333333333333
-0.802500 14.948200 -20.886700 -3.388900 -7.019700 11.434500 0.000000 0.000000 0.000000 -3.640800 -27.180300 -39.771500 5.003400 13.387600 40.837500 -0.295500 16.024600 -19.529600 0.916900 6.101100 17.078100 0.000000 0.000000 0.000000 31.242100 6.351400 -21.235200 -4.251100 -12.487200 37.478100 -2.294600 -8.259300 -32.501600 -0.388300 -4.001500 11.080900 6.996300 -0.052700 -4.029600 1.274000 -0.186900 -4.941800 -2.600600 -0.301800 -2.885000 13.002500 6.358400 -11.248300 -10.471500 9.326500 29.861300 -4.931500 4.369400 12.962200 0.000000 -0.000000 0.000000 5.818800 13.130300 -15.671500 16.355900 -26.000800 3.800600 2.487500 17.023600 -13.981000 0.000000 0.000000 0.000000 -7.125000 0.000000 0.000000 -22.382900 42.794100 -1.288600 0.000000 -0.000000 0.000000 -8.484300 8.730800 19.908800 -11.662800 -19.297000 -1.989400 -7.321700 18.269100 7.933100 0.000000 0.000000 0.000000 7.125000 0.000000 -0.000000 16.539800 37.491100 3.161900
-0.832762 14.954883 -21.006250 -3.108078 -5.971220 11.106081 0.000000 0.000000 0.000000 -4.570905 -25.913699 -40.503737 4.992831 13.375731 40.791804 -0.244559 15.312477 -18.975429 0.753927 5.545296 15.470598 0.000000 0.000000 0.000000 31.214767 6.276407 -21.554460 -4.275921 -12.518853 37.593041 -2.233775 -8.991365 -32.590386 -0.444732 -4.278825 11.862480 6.931502 -0.048718 -3.754050 1.115267 -0.162518 -4.833758 -2.728225 -0.288266 -2.924061 12.573049 6.052710 -11.323711 -9.955308 8.816874 29.938631 -4.731842 4.155408 12.877701 0.000000 0.000000 0.000000 6.551117 12.546571 -14.724622 16.768929 -26.552197 3.983562 3.599512 16.874272 -13.952334 0.000000 0.000000 0.000000 -7.125000 0.000000 0.000000 -21.423048 42.882687 -1.177995 0.000000 0.000000 0.000000 -9.130473 8.432840 17.586382 -11.321945 -18.780017 -1.878255 -8.220164 19.129919 7.650753 0.000000 0.000000 0.000000 7.125000 0.000000 0.000000 15.734451 37.277268 3.083353
-0.854166 14.955838 -21.119486 -2.821949 -4.936847 10.787527 0.000000 0.000000 0.000000 -6.102266 -23.920681 -41.063647 5.018536 13.404571 40.902522 0.064015 13.222657 -19.552496 0.438692 4.247387 11.774171 0.000000 0.000000 0.000000 31.112146 6.233716 -21.902302 -4.333540 -12.591451 37.857850 -2.201465 -9.651791 -32.819310 -0.500553 -4.535723 12.588974 6.891033 -0.091812 -3.348797 0.997321 -0.186346 -4.806179 -2.826566 -0.305939 -3.125437 12.201293 5.796048 -11.255042 -9.542257 8.415985 30.005435 -4.568501 3.988474 12.788791 0.000000 0.000000 0.000000 7.034566 12.259725 -14.498743 17.380728 -27.356884 4.260842 5.050810 16.590164 -14.039293 0.000000 0.000000 0.000000 -7.125000 0.000000 0.000000 -20.206183 43.115156 -0.983034 0.000000 0.000000 0.000000 -9.914522 8.424025 16.743645 -11.458230 -18.987214 -1.922379 -9.143976 18.170429 7.408312 0.000000 0.000000 0.000000 7.125000 0.000000 0.000000 14.919413 37.100841 2.980839
-0.865921 14.952934 -21.225032 -2.574982 -3.892797 10.556378 0.000000 0.000000 0.000000 -7.767447 -22.135808 -41.341114 5.120475 13.518162 41.340588 0.422848 11.241115 -21.013812 0.223988 3.044697 8.403293 0.000000 0.000000 0.000000 30.991486 6.267363 -22.341830 -4.416432 -12.694795 38.236475 -2.169151 -10.397336 -33.121165 -0.538098 -4.700063 13.055084 6.950797 -0.160811 -3.056324 0.908012 -0.256553 -4.759622 -2.951630 -0.346882 -3.250131 11.922324 5.552188 -11.457964 -9.207505 8.019361 30.274225 -4.454439 3.818059 12.855845 0.000000 0.000000 0.000000 7.312722 12.050711 -14.868230 17.991071 -28.145661 4.545081 6.320424 16.259165 -13.668360 0.000000 0.000000 0.000000 -7.125000 0.000000 0.000000 -18.985307 42.896627 -1.025306 0.000000 0.000000 0.000000 -10.715436 8.376742 16.802810 -11.875850 -19.618169 -2.060487 -9.365650 16.505168 7.632692 0.000000 0.000000 0.000000 7.125000 0.000000 0.000000 14.784603 37.334471 2.865193
-0.870983 14.945272 -21.324430 -2.283434 -2.972273 10.420718 0.000000 0.000000 0.000000 -9.400782 -20.773079 -41.280528 5.293132 13.706447 42.074008 0.759566 9.643073 -22.647319 0.129428 2.317999 6.385298 0.000000 0.000000 0.000000 30.749892 6.529998 -22.868783 -4.534307 -12.839323 38.769871 -2.151413 -11.158933 -33.536479 -0.588245 -4.910476 13.653418 6.926469 -0.235319 -2.849732 0.858059 -0.339073 -4.735760 -2.988736 -0.390276 -3.350107 11.621896 5.356145 -11.625796 -8.832895 7.689365 30.553761 -4.310696 3.681155 12.929859 0.000000 0.000000 0.000000 7.342645 12.009763 -15.813899 18.648068 -28.978902 4.859211 6.974562 15.559056 -13.476593 0.000000 0.000000 0.000000 -7.125000 0.000000 0.000000 -18.357525 42.781288 -1.043152 0.000000 0.000000 0.000000 -11.523429 8.344334 17.608314 -12.485682 -20.528876 -2.269834 -9.578340 14.483812 8.020918 0.000000 0.000000 0.000000 7.125000 0.000000 0.000000 14.692422 37.728721 2.700254
-0.868479 14.938427 -21.417530 -1.950350 -2.359993 10.379420 0.000000 0.000000 0.000000 -10.855968 -19.925648 -40.830842 5.535930 13.962975 43.089442 1.100306 8.520444 -24.611329 0.069716 1.700633 4.679081 0.000000 0.000000 0.000000 30.367863 6.831326 -23.500285 -4.669296 -13.001356 39.373695 -2.152514 -11.621029 -33.864744 -0.646986 -5.145374 14.323768 6.852199 -0.239276 -2.726339 0.806600 -0.333286 -4.748753 -2.999803 -0.388493 -3.431865 11.417723 5.187845 -11.718140 -8.545325 7.411956 30.840086 -4.211563 3.570763 13.009582 0.000000 0.000000 0.000000 7.210147 12.135999 -17.331711 19.248587 -29.726282 5.153557 7.092238 14.783617 -13.483490 0.000000 0.000000 0.000000 -7.125000 0.000000 0.000000 -18.257837 42.799841 -1.028348 0.000000 0.000000 0.000000 -12.229246 8.298320 18.802824 -13.168663 -21.533648 -2.514956 -10.314828 12.341990 7.972878 0.000000 0.000000 0.000000 7.125000 0.000000 0.000000 14.069586 37.731262 2.578990
-0.862893 14.932120 -21.501910 -1.569924 -1.838066 10.315771 0.000000 0.000000 0.000000 -12.216485 -19.516775 -39.985899 5.842776 14.274166 44.347273 1.339309 7.904015 -26.013956 0.020639 0.924297 2.540584 0.000000 0.000000 0.000000 29.909937 7.065414 -24.086739 -4.810177 -13.166755 39.995993 -2.159160 -11.977969 -34.154713 -0.683059 -5.284131 14.720701 6.697978 -0.263038 -2.602086 0.776420 -0.354083 -4.750882 -2.944092 -0.396084 -3.503783 11.289671 5.083059 -11.810822 -8.326076 7.230236 31.132607 -4.137918 3.503758 13.113592 0.000000 0.000000 0.000000 6.922756 12.368702 -19.333333 19.767171 -30.360748 5.413158 6.827070 14.066712 -13.862247 0.000000 0.000000 0.000000 -7.125000 0.000000 0.000000 -18.609875 43.133248 -0.890367 0.000000 0.000000 0.000000 -12.793459 8.174143 20.027277 -13.875828 -22.556822 -2.780367 -10.950637 10.461640 7.855637 0.000000 0.000000 0.000000 7.125000 0.000000 0.000000 13.515352 37.658201 2.497626
-0.857386 14.923606 -21.575182 -1.227455 -1.319216 10.272635 0.000000 0.000000 0.000000 -13.428627 -19.424327 -38.932614 6.202440 14.621573 45.788643 1.543853 7.278616 -27.087110 0.003144 0.358450 0.984988 0.000000 0.000000 0.000000 29.474867 7.291942 -24.624426 -4.950624 -13.328002 40.608991 -2.185407 -12.224400 -34.477009 -0.722954 -5.433114 15.148222 6.538890 -0.315623 -2.528080 0.779856 -0.415807 -4.781172 -2.850477 -0.424031 -3.580370 11.232427 5.023068 -11.895272 -8.117743 7.102895 31.474630 -4.073983 3.468780 13.249891 0.000000 0.000000 0.000000 6.518025 12.763150 -21.602072 20.152518 -30.825611 5.609334 6.387645 13.175793 -14.176610 0.000000 0.000000 0.000000 -7.125000 0.000000 0.000000 -19.095577 43.385514 -0.791631 0.000000 0.000000 0.000000 -13.084067 8.052221 21.090024 -14.588707 -23.569851 -3.059667 -11.667154 8.860812 7.584896 0.000000 0.000000 0.000000 7.125000 0.000000 0.000000 12.863880 37.436865 2.443200
-0.852006 14.914378 -21.635561 -0.941118 -0.834608 10.304634 0.000000 0.000000 0.000000 -14.505715 -19.510552 -37.825153 6.583335 14.970669 47.280018 1.745448 6.510556 -28.016273 0.000514 -0.137036 -0.376467 0.000000 0.000000 0.000000 29.094720 7.498152 -25.170455 -5.088046 -13.482210 41.201633 -2.217659 -12.406634 -34.785398 -0.746634 -5.519497 15.396371 6.404081 -0.377449 -2.573294 0.811394 -0.497111 -4.855442 -2.741541 -0.462312 -3.637747 11.174651 4.978335 -11.940393 -7.875536 6.987713 31.787203 -3.993419 3.444341 13.366809 0.000000 0.000000 0.000000 5.975151 13.320413 -23.869777 20.445089 -31.174874 5.760005 5.898211 11.853320 -14.598206 0.000000 0.000000 0.000000 -7.125000 0.000000 0.000000 -19.665031 43.731734 -0.641822 0.000000 0.000000 0.000000 -13.110237 8.064396 22.223089 -15.366810 -24.654503 -3.377558 -12.293757 7.110829 7.605317 0.000000 0.000000 0.000000 7.125000 0.000000 0.000000 12.345212 37.498073 2.322261
-0.846216 14.907782 -21.683622 -0.655991 -0.394764 10.446432 0.000000 0.000000 0.000000 -15.471199 -19.730376 -36.748738 6.890841 15.239316 48.460424 1.925006 5.445348 -28.621595 0.004032 -0.407541 -1.119719 0.000000 0.000000 0.000000 28.700985 7.736548 -25.746253 -5.214001 -13.620817 41.739099 -2.244262 -12.588786 -35.061611 -0.757286 -5.557945 15.507036 6.261425 -0.432518 -2.826088 0.832425 -0.585966 -4.925817 -2.641194 -0.500762 -3.573938 11.120976 4.904928 -12.015183 -7.668402 6.827147 31.973096 -3.930327 3.394217 13.432384 0.000000 0.000000 0.000000 5.281762 13.883371 -25.553764 20.638255 -31.403558 5.860236 5.170022 10.341611 -14.892305 0.000000 0.000000 0.000000 -7.125000 0.000000 0.000000 -20.402251 43.929009 -0.564026 0.000000 0.000000 0.000000 -12.893664 8.115898 23.495122 -16.140311 -25.710430 -3.706647 -12.869509 5.251555 7.478536 0.000000 0.000000 0.000000 7.125000 0.000000 0.000000 11.840516 37.408534 2.250449
-0.838447 14.904193 -21.713486 -0.373500 -0.160452 10.576602 0.000000 0.000000 0.000000 -16.317693 -20.008302 -35.519824 6.990364 15.323748 48.837681 2.065069 4.539173 -29.069830 0.007953 -0.574727 -1.579320 0.000000 0.000000 0.000000 28.304208 7.867861 -26.213786 -5.318364 -13.733520 42.180418 -2.277163 -12.571894 -35.228152 -0.761065 -5.571367 15.545621 6.103735 -0.440909 -3.053996 0.843661 -0.608265 -5.040659 -2.542605 -0.508140 -3.564388 11.045922 4.804438 -12.001072 -7.507199 6.648973 32.030385 -3.882095 3.328816 13.421789 0.000000 0.000000 0.000000 4.482822 14.527174 -26.539674 20.717366 -31.496916 5.901540 4.082462 8.703823 -14.950762 0.000000 0.000000 0.000000 -7.125000 0.000000 0.000000 -21.367061 43.864114 -0.629337 0.000000 0.000000 0.000000 -12.480096 8.295094 24.770862 -16.791757 -26.582363 -3.993726 -12.836470 4.064693 8.003334 0.000000 0.000000 0.000000 7.125000 0.000000 0.000000 11.967497 37.931912 2.118995
-0.832092 14.905211 -21.729463 -0.079444 -0.116769 10.762966 0.000000 0.000000 0.000000 -17.015154 -20.256291 -34.364239 6.838287 15.194179 48.259929 2.176069 4.208972 -29.618190 0.013158 -0.740770 -2.035670 0.000000 0.000000 0.000000 27.891842 7.954888 -26.646279 -5.398023 -13.818448 42.514980 -2.309422 -12.408833 -35.287143 -0.754706 -5.548407 15.479532 5.878766 -0.407260 -3.339830 0.846246 -0.576732 -5.185705 -2.415982 -0.486736 -3.547529 10.998819 4.691770 -12.042565 -7.429799 6.469209 32.129464 -3.873718 3.254729 13.446081 0.000000 0.000000 0.000000 3.747768 15.134993 -27.009832 20.699093 -31.475439 5.892034 1.934056 7.041804 -14.760686 0.000000 0.000000 0.000000 -7.125000 0.000000 0.000000 -23.144249 43.454320 -0.936916 0.000000 0.000000 0.000000 -11.914772 8.611622 26.122884 -17.330328 -27.291178 -4.237682 -12.628606 3.211436 7.972096 0.000000 0.000000 0.000000 7.125000 0.000000 0.000000 12.135860 37.886647 2.163610
